<?xml version="1.0" encoding="utf-8"?>
<!-- Generator: Adobe Illustrator 21.1.0, SVG Export Plug-In . SVG Version: 6.00 Build 0)  -->
<svg version="1.1" id="Layer_1" xmlns="http://www.w3.org/2000/svg" xmlns:xlink="http://www.w3.org/1999/xlink" x="0px" y="0px"
	 viewBox="0 0 512 689" style="enable-background:new 0 0 512 689;" xml:space="preserve">
<style type="text/css">
	.st0{clip-path:url(#SVGID_2_);fill:#FFFFFF;}
	.st1{fill-rule:evenodd;clip-rule:evenodd;fill:#FFFFFF;}
	.st2{fill:none;stroke:#FFFFFF;stroke-width:0.5;stroke-linejoin:round;stroke-miterlimit:10;}
	.st3{fill:none;stroke:#000000;stroke-width:0.3333;stroke-linejoin:round;stroke-miterlimit:10;stroke-dasharray:0.5,4;}
	.st4{fill:none;stroke:#000000;stroke-width:0.5;stroke-linejoin:round;stroke-miterlimit:10;}
	.st5{font-family:'Helvetica';}
	.st6{font-size:10px;}
	
		.st7{clip-path:url(#SVGID_4_);fill:none;stroke:#000000;stroke-width:0.5;stroke-linejoin:round;stroke-miterlimit:10;stroke-dasharray:6;}
	.st8{clip-path:url(#SVGID_4_);fill:none;stroke:#6ABD45;stroke-width:0.5;stroke-linejoin:round;stroke-miterlimit:10;}
	.st9{fill:none;stroke:#6ABD45;stroke-width:0.5;stroke-linejoin:round;stroke-miterlimit:10;}
	.st10{clip-path:url(#SVGID_6_);fill:none;stroke:#000000;stroke-width:0.5;stroke-linejoin:round;stroke-miterlimit:10;}
	.st11{clip-path:url(#SVGID_8_);fill:none;stroke:#3953A4;stroke-width:0.5;stroke-linejoin:round;stroke-miterlimit:10;}
	.st12{fill:none;stroke:#3953A4;stroke-width:0.5;stroke-linejoin:round;stroke-miterlimit:10;}
	.st13{clip-path:url(#SVGID_10_);fill:none;stroke:#ED2024;stroke-width:0.5;stroke-linejoin:round;stroke-miterlimit:10;}
	.st14{fill:none;stroke:#ED2024;stroke-width:0.5;stroke-linejoin:round;stroke-miterlimit:10;}
	.st15{font-family:'Symbol';}
	
		.st16{clip-path:url(#SVGID_12_);fill:none;stroke:#000000;stroke-width:0.5;stroke-linejoin:round;stroke-miterlimit:10;stroke-dasharray:6;}
	.st17{clip-path:url(#SVGID_12_);fill:none;stroke:#6ABD45;stroke-width:0.5;stroke-linejoin:round;stroke-miterlimit:10;}
	.st18{clip-path:url(#SVGID_14_);fill:none;stroke:#000000;stroke-width:0.5;stroke-linejoin:round;stroke-miterlimit:10;}
	.st19{clip-path:url(#SVGID_16_);fill:none;stroke:#3953A4;stroke-width:0.5;stroke-linejoin:round;stroke-miterlimit:10;}
	.st20{clip-path:url(#SVGID_18_);fill:none;stroke:#ED2024;stroke-width:0.5;stroke-linejoin:round;stroke-miterlimit:10;}
	.st21{font-size:8px;}
	
		.st22{clip-path:url(#SVGID_20_);fill:none;stroke:#000000;stroke-width:0.5;stroke-linejoin:round;stroke-miterlimit:10;stroke-dasharray:6;}
	.st23{clip-path:url(#SVGID_20_);fill:none;stroke:#6ABD45;stroke-width:0.5;stroke-linejoin:round;stroke-miterlimit:10;}
	.st24{clip-path:url(#SVGID_22_);fill:none;stroke:#6ABD45;stroke-width:0.5;stroke-linejoin:round;stroke-miterlimit:10;}
	.st25{clip-path:url(#SVGID_24_);fill:none;stroke:#000000;stroke-width:0.5;stroke-linejoin:round;stroke-miterlimit:10;}
	.st26{clip-path:url(#SVGID_26_);fill:none;stroke:#3953A4;stroke-width:0.5;stroke-linejoin:round;stroke-miterlimit:10;}
	.st27{clip-path:url(#SVGID_28_);fill:none;stroke:#ED2024;stroke-width:0.5;stroke-linejoin:round;stroke-miterlimit:10;}
	.st28{clip-path:url(#SVGID_30_);fill:none;stroke:#ED2024;stroke-width:0.5;stroke-linejoin:round;stroke-miterlimit:10;}
</style>
<g>
	<g>
		<defs>
			<rect id="SVGID_1_" x="18" y="8" width="462.3" height="659.2"/>
		</defs>
		<clipPath id="SVGID_2_">
			<use xlink:href="#SVGID_1_"  style="overflow:visible;"/>
		</clipPath>
		<rect x="-39.3" y="-20.1" class="st0" width="569.7" height="756.2"/>
	</g>
	<rect x="34.8" y="36.6" class="st1" width="186.2" height="169.2"/>
	<polyline class="st2" points="34.8,205.8 34.8,36.6 221,36.6 221,205.8 34.8,205.8 	"/>
	<path class="st3" d="M34.8,205.8V36.6 M34.8,36.6L34.8,36.6 M72,205.8V36.6 M72,36.6L72,36.6 M109.3,205.8V36.6 M109.3,36.6
		L109.3,36.6 M146.5,205.8V36.6 M146.5,36.6L146.5,36.6 M183.8,205.8V36.6 M183.8,36.6L183.8,36.6 M221,205.8V36.6 M221,36.6
		L221,36.6 M34.8,205.8H221 M221,205.8L221,205.8 M34.8,181.6H221 M221,181.6L221,181.6 M34.8,157.4H221 M221,157.4L221,157.4
		 M34.8,133.2H221 M221,133.2L221,133.2 M34.8,109.1H221 M221,109.1L221,109.1 M34.8,84.9H221 M221,84.9L221,84.9 M34.8,60.8H221
		 M221,60.8L221,60.8"/>
	<path class="st4" d="M34.8,205.8H221 M34.8,36.6H221 M34.8,205.8V36.6 M221,205.8V36.6 M34.8,205.8H221 M34.8,205.8V36.6
		 M34.8,205.8v-1.9 M34.8,36.6v1.8"/>
	<text transform="matrix(1 0 0 1 32.0078 217.9166)" class="st5 st6">0</text>
	<path class="st4" d="M72,205.8v-1.9 M72,36.6v1.8"/>
	<text transform="matrix(1 0 0 1 65.0859 217.9166)" class="st5 st6">0.</text>
	<text transform="matrix(1 0 0 1 73.4297 217.9166)" class="st5 st6">2</text>
	<path class="st4" d="M109.3,205.8v-1.9 M109.3,36.6v1.8"/>
	<text transform="matrix(1 0 0 1 102.3438 217.9166)" class="st5 st6">0.</text>
	<text transform="matrix(1 0 0 1 110.6797 217.9166)" class="st5 st6">4</text>
	<path class="st4" d="M146.5,205.8v-1.9 M146.5,36.6v1.8"/>
	<text transform="matrix(1 0 0 1 139.5938 217.9166)" class="st5 st6">0.</text>
	<text transform="matrix(1 0 0 1 147.9297 217.9166)" class="st5 st6">6</text>
	<path class="st4" d="M183.8,205.8v-1.9 M183.8,36.6v1.8"/>
	<text transform="matrix(1 0 0 1 176.8359 217.9166)" class="st5 st6">0.</text>
	<text transform="matrix(1 0 0 1 185.1797 217.9166)" class="st5 st6">8</text>
	<path class="st4" d="M221,205.8v-1.9 M221,36.6v1.8"/>
	<text transform="matrix(1 0 0 1 218.2578 217.9166)" class="st5 st6">1</text>
	<path class="st4" d="M34.8,205.8h1.8 M221,205.8h-1.9"/>
	<text transform="matrix(1 0 0 1 26.3359 209.5026)" class="st5 st6">0</text>
	<path class="st4" d="M34.8,181.6h1.8 M221,181.6h-1.9"/>
	<text transform="matrix(1 0 0 1 18 185.2448)" class="st5 st6">0.</text>
	<text transform="matrix(1 0 0 1 26.3516 185.2448)" class="st5 st6">2</text>
	<path class="st4" d="M34.8,157.4h1.8 M221,157.4h-1.9"/>
	<text transform="matrix(1 0 0 1 18 161.0885)" class="st5 st6">0.</text>
	<text transform="matrix(1 0 0 1 26.3516 161.0885)" class="st5 st6">4</text>
	<path class="st4" d="M34.8,133.2h1.8 M221,133.2h-1.9"/>
	<text transform="matrix(1 0 0 1 18 136.9166)" class="st5 st6">0.</text>
	<text transform="matrix(1 0 0 1 26.3516 136.9166)" class="st5 st6">6</text>
	<path class="st4" d="M34.8,109.1h1.8 M221,109.1h-1.9"/>
	<text transform="matrix(1 0 0 1 18 112.7448)" class="st5 st6">0.</text>
	<text transform="matrix(1 0 0 1 26.3516 112.7448)" class="st5 st6">8</text>
	<path class="st4" d="M34.8,84.9h1.8 M221,84.9h-1.9"/>
	<text transform="matrix(1 0 0 1 26.3359 88.5885)" class="st5 st6">1</text>
	<path class="st4" d="M34.8,60.8h1.8 M221,60.8h-1.9"/>
	<text transform="matrix(1 0 0 1 18 64.4166)" class="st5 st6">1.</text>
	<text transform="matrix(1 0 0 1 26.3516 64.4166)" class="st5 st6">2</text>
	<path class="st4" d="M34.8,205.8H221 M34.8,36.6H221 M34.8,205.8V36.6 M221,205.8V36.6"/>
	<g>
		<defs>
			<rect id="SVGID_3_" x="34.8" y="36.6" width="186.3" height="169.3"/>
		</defs>
		<clipPath id="SVGID_4_">
			<use xlink:href="#SVGID_3_"  style="overflow:visible;"/>
		</clipPath>
		<path class="st7" d="M34.8,205.8L221,84.9 M214.4,174l-0.2-0.5L214,173l-0.2-0.5l-0.2-0.5l-0.2-0.6l-0.2-0.5l-0.2-0.5l-0.2-0.5
			l-0.2-0.5l-0.2-0.5l-0.3-0.5l-0.2-0.5l-0.3-0.5l-0.2-0.5l-0.2-0.5l-0.2-0.5l-0.3-0.5l-0.2-0.5l-0.2-0.5l-0.3-0.5l-0.2-0.5
			l-0.2-0.4l-0.3-0.5l-0.2-0.5l-0.3-0.5l-0.3-0.5l-0.2-0.5l-0.3-0.5l-0.3-0.5l-0.2-0.5l-0.3-0.4l-0.3-0.5l-0.3-0.5l-0.3-0.5
			l-0.3-0.5l-0.3-0.4l-0.3-0.5l-0.3-0.5l-0.3-0.5l-0.3-0.4l-0.3-0.5l-0.3-0.5l-0.4-0.4l-0.3-0.5l-0.3-0.5l-0.4-0.4l-0.3-0.5
			l-0.4-0.5l-0.3-0.4l-0.4-0.5l-0.3-0.5l-0.4-0.4l-0.3-0.5l-0.4-0.4l-0.4-0.5l-0.3-0.4l-0.4-0.5l-0.4-0.4l-0.4-0.5l-0.4-0.4
			l-0.4-0.5l-0.4-0.4l-0.4-0.5l-0.4-0.4l-0.4-0.4l-0.4-0.5l-0.4-0.4l-0.4-0.5l-0.5-0.4l-0.4-0.4l-0.4-0.5l-0.4-0.4l-0.5-0.4
			l-0.4-0.4l-0.5-0.5l-0.4-0.4l-0.5-0.4l-0.4-0.4l-0.5-0.5l-0.4-0.4l-0.5-0.4l-0.5-0.4l-0.4-0.4l-0.5-0.4l-0.5-0.4l-0.5-0.4
			l-0.5-0.5l-0.4-0.4l-0.5-0.4l-0.5-0.4l-0.5-0.4l-0.5-0.4l-0.5-0.4l-0.5-0.4l-0.6-0.3l-0.5-0.4l-0.5-0.4l-0.5-0.4l-0.5-0.4
			l-0.6-0.4l-0.5-0.4l-0.5-0.3l-0.6-0.4l-0.5-0.4l-0.6-0.4l-0.5-0.4l-0.6-0.3l-0.5-0.4l-0.6-0.4l-0.5-0.3l-0.6-0.4l-0.6-0.4
			l-0.5-0.3l-0.6-0.4l-0.6-0.3l-0.6-0.4l-0.5-0.3l-0.6-0.4l-0.6-0.3l-0.6-0.4l-0.6-0.3l-0.6-0.4l-0.6-0.3l-0.6-0.3l-0.6-0.4
			l-0.6-0.3l-0.6-0.3l-0.6-0.4l-0.7-0.3l-0.6-0.3l-0.6-0.4l-0.6-0.3l-0.7-0.3l-0.6-0.3l-0.6-0.3l-0.7-0.4l-0.6-0.3l-0.6-0.3
			l-0.7-0.3l-0.6-0.3l-0.7-0.3l-0.6-0.3l-0.7-0.3l-0.7-0.3l-0.6-0.3l-0.7-0.3l-0.6-0.3l-0.7-0.3l-0.7-0.2l-0.7-0.3l-0.6-0.3
			l-0.7-0.3l-0.7-0.3l-0.7-0.2l-0.7-0.3l-0.7-0.3l-0.7-0.3l-0.7-0.2l-0.7-0.3l-0.7-0.2l-0.7-0.3l-0.7-0.3l-0.7-0.2l-0.7-0.3
			l-0.7-0.2l-0.7-0.3l-0.7-0.2l-0.7-0.3l-0.8-0.2l-0.7-0.2l-0.7-0.3l-0.7-0.2l-0.8-0.2l-0.7-0.3l-0.7-0.2l-0.8-0.2l-0.7-0.2
			l-0.8-0.3l-0.7-0.2l-0.7-0.2l-0.8-0.2l-0.7-0.2l-0.8-0.2l-0.7-0.2l-0.8-0.2l-0.8-0.2l-0.7-0.2l-0.8-0.2l-0.7-0.2l-0.8-0.2
			l-0.8-0.2l-0.8-0.2l-0.7-0.2l-0.7-0.2l-0.8-0.2l-0.8-0.2l-0.7-0.2l-0.8-0.2l-0.8-0.2l-0.8-0.2l-0.8-0.2l-0.8-0.2l-0.7-0.2
			l-0.8-0.2l-0.8-0.2l-0.8-0.2l-0.8-0.2l-0.8-0.2l-0.8-0.2l-0.8-0.2l-0.8-0.2l-0.8-0.2l-0.8-0.2l-0.8-0.2l-0.8-0.2l-0.8-0.2
			l-0.8-0.2l-0.8-0.2l-0.8-0.2L97.7,92l-0.8-0.2l-0.8-0.2l-0.8-0.2l-0.8-0.2l-0.8-0.2L93,91l-0.8-0.2l-0.8-0.2l-0.8-0.2l-0.8-0.2
			l-0.8-0.2L88.4,90l-0.8-0.1l-0.8-0.2l-0.8-0.2l-0.8-0.2l-0.8-0.1l-0.8-0.2L82.9,89l-0.8-0.1l-0.8-0.2l-0.8-0.2l-0.8-0.1L79,88.3
			l-0.8-0.1l-0.8-0.2L76.6,88l-0.8-0.1L75,87.8l-0.8-0.1l-0.8-0.2l-0.8-0.1l-0.8-0.1l-0.8-0.1l-0.8-0.2L69.4,87l-0.8-0.1l-0.8-0.1
			l-0.8-0.1l-0.8-0.1l-0.8-0.1l-0.8-0.1l-0.8-0.1L63,86.3l-0.8-0.1l-0.8-0.1l-0.8-0.1L59.8,86L59,85.9l-0.8-0.1h-0.8l-0.8-0.1
			l-0.8-0.1L55,85.6h-0.8l-0.8-0.1l-0.8-0.1h-0.8l-0.8-0.1h-0.8l-0.8-0.1h-0.8l-0.8-0.1h-0.8l-0.8-0.1h-0.8h-0.8L43.7,85h-0.8H42
			h-0.8l-0.8-0.1h-0.8h-0.8H38h-0.8h-0.8h-0.8h-0.8 M221,205.8l-0.1-0.6v-2.6l-0.1-0.6v-1l-0.1-0.6V200l-0.1-0.5v-0.6l-0.1-0.5v-0.5
			l-0.1-0.6l-0.1-0.5v-0.5l-0.1-0.6l-0.1-0.5l-0.1-0.5l-0.1-0.6l-0.1-0.5l-0.1-0.5l-0.1-0.5l-0.1-0.6l-0.1-0.5l-0.1-0.5l-0.1-0.6
			l-0.2-0.5l-0.1-0.5l-0.1-0.5l-0.2-0.6l-0.1-0.5l-0.2-0.5l-0.1-0.5l-0.2-0.6l-0.1-0.5l-0.2-0.5l-0.1-0.5l-0.2-0.6l-0.2-0.5
			l-0.2-0.5l-0.2-0.5l-0.1-0.6l-0.2-0.5l-0.2-0.5l-0.2-0.5l-0.2-0.5l-0.2-0.5l-0.2-0.6l-0.2-0.5l-0.2-0.5l-0.2-0.5l-0.2-0.5
			l-0.2-0.5l-0.2-0.6l-0.2-0.5l-0.2-0.5l-0.2-0.5l-0.2-0.5"/>
		<path class="st8" d="M220,193.8L220,193.8 M217.3,181.8l-0.1-0.4 M212.7,170.1l-0.2-1.5"/>
	</g>
	<text transform="matrix(1 0 0 1 212.4219 172.0807)" class="st5 st6">3</text>
	<path class="st9" d="M206.3,158.8l-0.7-3.7 M198.2,147.8l-1.2-7.8 M188.4,137.5l-1-14.4"/>
	<text transform="matrix(1 0 0 1 187.4219 126.5885)" class="st5 st6">6</text>
	<path class="st9" d="M177.2,127.9l1.9-24.1 M164.5,119.1l8.6-35.6 M150.5,111.1l18.8-48"/>
	<text transform="matrix(1 0 0 1 169.3359 66.5885)" class="st5 st6">9</text>
	<g>
		<defs>
			<rect id="SVGID_5_" x="34.8" y="36.6" width="186.3" height="169.3"/>
		</defs>
		<clipPath id="SVGID_6_">
			<use xlink:href="#SVGID_5_"  style="overflow:visible;"/>
		</clipPath>
		<polyline class="st10" points="220,193.8 217.3,181.8 212.7,170.1 206.3,158.8 198.2,147.8 188.4,137.5 177.2,127.9 164.5,119.1 
			150.5,111.1 		"/>
	</g>
	<path class="st4" d="M223,193.8c0,1.7-1.3,3-3,3s-3-1.3-3-3s1.3-3,3-3S223,192.1,223,193.8 M220.4,181.8c0,1.7-1.3,3-3,3
		s-3-1.3-3-3s1.3-3,3-3S220.4,180.1,220.4,181.8 M215.7,170c0,1.7-1.3,3-3,3s-3-1.3-3-3s1.3-3,3-3S215.7,168.3,215.7,170
		 M209.3,158.7c0,1.7-1.3,3-3,3c-1.7,0-3-1.3-3-3s1.3-3,3-3C208,155.7,209.3,157.1,209.3,158.7 M201.2,147.9c0,1.7-1.3,3-3,3
		c-1.7,0-3-1.3-3-3s1.3-3,3-3C199.8,144.9,201.2,146.3,201.2,147.9 M191.3,137.6c0,1.7-1.3,3-3,3c-1.7,0-3-1.3-3-3s1.3-3,3-3
		C190,134.6,191.3,135.9,191.3,137.6 M180.3,128c0,1.7-1.3,3-3,3c-1.7,0-3-1.3-3-3s1.3-3,3-3C178.9,125,180.3,126.3,180.3,128
		 M167.6,119.1c0,1.7-1.3,3-3,3c-1.7,0-3-1.3-3-3s1.3-3,3-3C166.2,116.1,167.6,117.5,167.6,119.1 M153.4,111.2c0,1.7-1.3,3-3,3
		c-1.7,0-3-1.3-3-3s1.3-3,3-3C152,108.2,153.4,109.5,153.4,111.2"/>
	<g>
		<defs>
			<rect id="SVGID_7_" x="34.8" y="36.6" width="186.3" height="169.3"/>
		</defs>
		<clipPath id="SVGID_8_">
			<use xlink:href="#SVGID_7_"  style="overflow:visible;"/>
		</clipPath>
		<polyline class="st11" points="220,193.7 217.2,181.3 212.4,168.6 205.6,155.1 196.9,140.1 187.4,123.1 179.1,103.8 173.1,83.5 
			169.3,63.1 		"/>
	</g>
	<path class="st12" d="M217.9,191.6l4.2,4.2 M222.1,191.6l-4.2,4.2 M215.1,179.2l4.2,4.2 M219.3,179.2l-4.2,4.2 M210.3,166.5
		l4.2,4.2 M214.5,166.5l-4.2,4.2 M203.5,153l4.2,4.2 M207.7,153l-4.2,4.2 M194.8,138l4.2,4.2 M199,138l-4.2,4.2 M185.3,121l4.2,4.2
		 M189.5,121l-4.2,4.2 M177,101.8l4.2,4.2 M181.2,101.8l-4.2,4.2 M171,81.4l4.2,4.2 M175.2,81.4l-4.2,4.2 M167.3,61l4.2,4.2
		 M171.4,61l-4.2,4.2"/>
	<g>
		<defs>
			<rect id="SVGID_9_" x="34.8" y="36.6" width="186.3" height="169.3"/>
		</defs>
		<clipPath id="SVGID_10_">
			<use xlink:href="#SVGID_9_"  style="overflow:visible;"/>
		</clipPath>
		<polyline class="st13" points="35.7,199.8 38.5,193.9 43.3,188.6 50.1,184 58.8,180.8 68.3,179.7 76.6,180.8 82.6,183 86.3,185.2 
					"/>
	</g>
	<path class="st14" d="M33.6,197.7l4.2,4.2 M37.8,197.7l-4.2,4.2 M36.4,191.8l4.2,4.2 M40.6,191.8l-4.2,4.2 M41.2,186.5l4.2,4.2
		 M45.3,186.5l-4.2,4.2 M48,181.9l4.2,4.2 M52.2,181.9l-4.2,4.2 M56.7,178.8l4.2,4.2 M60.8,178.8l-4.2,4.2 M66.2,177.7l4.2,4.2
		 M70.3,177.7l-4.2,4.2 M74.5,178.7l4.2,4.2 M78.7,178.7l-4.2,4.2 M80.5,180.9l4.2,4.2 M84.7,180.9l-4.2,4.2 M84.3,183.2l4.2,4.2
		 M88.4,183.2l-4.2,4.2"/>
	<text transform="matrix(1 0 0 1 110.3359 28.0026)" class="st15 st6">ε</text>
	<text transform="matrix(1 0 0 1 114.6719 28.0026)" class="st5 st6"> = 0.0</text>
	<text transform="matrix(1 0 0 1 139.9766 28.0026)" class="st5 st6">0</text>
	<rect x="34.8" y="260.2" class="st1" width="186.2" height="169.2"/>
	<polyline class="st2" points="34.8,429.3 34.8,260.2 221,260.2 221,429.3 34.8,429.3 	"/>
	<path class="st3" d="M34.8,429.3V260.2 M34.8,260.2L34.8,260.2 M72,429.3V260.2 M72,260.2L72,260.2 M109.3,429.3V260.2
		 M109.3,260.2L109.3,260.2 M146.5,429.3V260.2 M146.5,260.2L146.5,260.2 M183.8,429.3V260.2 M183.8,260.2L183.8,260.2 M221,429.3
		V260.2 M221,260.2L221,260.2 M34.8,429.3H221 M221,429.3L221,429.3 M34.8,405.2H221 M221,405.2L221,405.2 M34.8,381H221 M221,381
		L221,381 M34.8,356.8H221 M221,356.8L221,356.8 M34.8,332.7H221 M221,332.7L221,332.7 M34.8,308.5H221 M221,308.5L221,308.5
		 M34.8,284.2H221 M221,284.2L221,284.2"/>
	<path class="st4" d="M34.8,429.3H221 M34.8,260.2H221 M34.8,429.3V260.2 M221,429.3V260.2 M34.8,429.3H221 M34.8,429.3V260.2
		 M34.8,429.3v-1.9 M34.8,260.2v1.8"/>
	<text transform="matrix(1 0 0 1 32.0078 441.4166)" class="st5 st6">0</text>
	<path class="st4" d="M72,429.3v-1.9 M72,260.2v1.8"/>
	<text transform="matrix(1 0 0 1 65.0859 441.4166)" class="st5 st6">0.</text>
	<text transform="matrix(1 0 0 1 73.4297 441.4166)" class="st5 st6">2</text>
	<path class="st4" d="M109.3,429.3v-1.9 M109.3,260.2v1.8"/>
	<text transform="matrix(1 0 0 1 102.3438 441.4166)" class="st5 st6">0.</text>
	<text transform="matrix(1 0 0 1 110.6797 441.4166)" class="st5 st6">4</text>
	<path class="st4" d="M146.5,429.3v-1.9 M146.5,260.2v1.8"/>
	<text transform="matrix(1 0 0 1 139.5938 441.4166)" class="st5 st6">0.</text>
	<text transform="matrix(1 0 0 1 147.9297 441.4166)" class="st5 st6">6</text>
	<path class="st4" d="M183.8,429.3v-1.9 M183.8,260.2v1.8"/>
	<text transform="matrix(1 0 0 1 176.8359 441.4166)" class="st5 st6">0.</text>
	<text transform="matrix(1 0 0 1 185.1797 441.4166)" class="st5 st6">8</text>
	<path class="st4" d="M221,429.3v-1.9 M221,260.2v1.8"/>
	<text transform="matrix(1 0 0 1 218.2578 441.4166)" class="st5 st6">1</text>
	<path class="st4" d="M34.8,429.3h1.8 M221,429.3h-1.9"/>
	<text transform="matrix(1 0 0 1 26.3359 433.0026)" class="st5 st6">0</text>
	<path class="st4" d="M34.8,405.2h1.8 M221,405.2h-1.9"/>
	<text transform="matrix(1 0 0 1 18 408.8307)" class="st5 st6">0.</text>
	<text transform="matrix(1 0 0 1 26.3516 408.8307)" class="st5 st6">2</text>
	<path class="st4" d="M34.8,381h1.8 M221,381h-1.9"/>
	<text transform="matrix(1 0 0 1 18 384.6666)" class="st5 st6">0.</text>
	<text transform="matrix(1 0 0 1 26.3516 384.6666)" class="st5 st6">4</text>
	<path class="st4" d="M34.8,356.8h1.8 M221,356.8h-1.9"/>
	<text transform="matrix(1 0 0 1 18 360.5026)" class="st5 st6">0.</text>
	<text transform="matrix(1 0 0 1 26.3516 360.5026)" class="st5 st6">6</text>
	<path class="st4" d="M34.8,332.7h1.8 M221,332.7h-1.9"/>
	<text transform="matrix(1 0 0 1 18 336.3307)" class="st5 st6">0.</text>
	<text transform="matrix(1 0 0 1 26.3516 336.3307)" class="st5 st6">8</text>
	<path class="st4" d="M34.8,308.5h1.8 M221,308.5h-1.9"/>
	<text transform="matrix(1 0 0 1 26.3359 312.1666)" class="st5 st6">1</text>
	<path class="st4" d="M34.8,284.2h1.8 M221,284.2h-1.9"/>
	<text transform="matrix(1 0 0 1 18 287.9166)" class="st5 st6">1.</text>
	<text transform="matrix(1 0 0 1 26.3516 287.9166)" class="st5 st6">2</text>
	<path class="st4" d="M34.8,429.3H221 M34.8,260.2H221 M34.8,429.3V260.2 M221,429.3V260.2"/>
	<g>
		<defs>
			<rect id="SVGID_11_" x="34.8" y="260.2" width="186.3" height="169.2"/>
		</defs>
		<clipPath id="SVGID_12_">
			<use xlink:href="#SVGID_11_"  style="overflow:visible;"/>
		</clipPath>
		<path class="st16" d="M34.8,429.3L221,308.5 M214.4,397.5l-0.2-0.5l-0.2-0.5l-0.2-0.5l-0.2-0.5l-0.2-0.5l-0.2-0.5l-0.2-0.5
			l-0.2-0.5l-0.2-0.6l-0.2-0.5l-0.3-0.5l-0.2-0.5l-0.3-0.5l-0.2-0.5l-0.2-0.5l-0.2-0.5l-0.3-0.5l-0.2-0.4l-0.2-0.5l-0.3-0.5
			l-0.2-0.5l-0.2-0.5l-0.3-0.5l-0.2-0.5L208,385l-0.3-0.5l-0.2-0.5l-0.3-0.5l-0.3-0.4l-0.2-0.5l-0.3-0.5l-0.3-0.5l-0.3-0.5l-0.3-0.4
			l-0.3-0.5l-0.3-0.5l-0.3-0.5l-0.3-0.5l-0.3-0.4l-0.3-0.5l-0.3-0.5l-0.3-0.4l-0.4-0.5l-0.3-0.5l-0.3-0.4l-0.4-0.5l-0.3-0.5
			l-0.4-0.4l-0.3-0.5l-0.4-0.5l-0.3-0.4l-0.4-0.5l-0.3-0.4l-0.4-0.5l-0.4-0.4l-0.3-0.5l-0.4-0.5l-0.4-0.4l-0.4-0.4l-0.4-0.5
			l-0.4-0.4l-0.4-0.5l-0.4-0.4l-0.4-0.5l-0.4-0.4l-0.4-0.5l-0.4-0.4l-0.4-0.4l-0.5-0.5l-0.4-0.4l-0.4-0.4l-0.4-0.5l-0.5-0.4
			l-0.4-0.4l-0.5-0.4l-0.4-0.5l-0.5-0.4l-0.4-0.4l-0.5-0.4l-0.4-0.4l-0.5-0.5l-0.5-0.4l-0.4-0.4l-0.5-0.4l-0.5-0.4l-0.5-0.4
			l-0.5-0.4l-0.4-0.4l-0.5-0.4l-0.5-0.4l-0.5-0.4l-0.5-0.4l-0.5-0.4l-0.5-0.4l-0.6-0.4l-0.5-0.4l-0.5-0.4l-0.5-0.4l-0.5-0.4
			l-0.6-0.3l-0.5-0.4l-0.5-0.4l-0.6-0.4l-0.5-0.4l-0.6-0.3l-0.5-0.4l-0.6-0.4l-0.5-0.3l-0.6-0.4l-0.5-0.4l-0.6-0.3l-0.6-0.4
			l-0.5-0.4l-0.6-0.3l-0.6-0.4l-0.6-0.3l-0.5-0.4l-0.6-0.3l-0.6-0.4l-0.6-0.3l-0.6-0.4l-0.6-0.3l-0.6-0.4l-0.6-0.3l-0.6-0.3
			l-0.6-0.4l-0.6-0.3l-0.6-0.3l-0.7-0.4l-0.6-0.3l-0.6-0.3l-0.6-0.3l-0.7-0.3l-0.6-0.4l-0.6-0.3l-0.7-0.3l-0.6-0.3l-0.6-0.3
			l-0.7-0.3l-0.6-0.3l-0.7-0.3l-0.6-0.3l-0.7-0.3l-0.7-0.3l-0.6-0.3l-0.7-0.3l-0.6-0.3l-0.7-0.3l-0.7-0.3l-0.7-0.3l-0.6-0.3
			l-0.7-0.2l-0.7-0.3l-0.7-0.3l-0.7-0.3l-0.7-0.2l-0.7-0.3l-0.7-0.3l-0.7-0.2l-0.7-0.3l-0.7-0.2l-0.7-0.3l-0.7-0.3l-0.7-0.2
			l-0.7-0.3l-0.7-0.2l-0.7-0.3l-0.7-0.2l-0.8-0.2l-0.7-0.3l-0.7-0.2l-0.7-0.3l-0.8-0.3l-0.7-0.2l-0.7-0.2l-0.8-0.3l-0.7-0.2
			l-0.8-0.2l-0.7-0.2l-0.7-0.2l-0.8-0.3l-0.7-0.2l-0.8-0.2l-0.7-0.2l-0.8-0.2l-0.8-0.2l-0.7-0.2l-0.8-0.2l-0.7-0.3l-0.8-0.2
			l-0.8-0.2l-0.8-0.2l-0.7-0.2l-0.7-0.2l-0.8-0.2l-0.8-0.2l-0.7-0.2l-0.8-0.2l-0.8-0.2l-0.8-0.2l-0.8-0.2l-0.8-0.2l-0.7-0.2
			l-0.8-0.2l-0.8-0.2l-0.8-0.2l-0.8-0.2l-0.8-0.2l-0.8-0.2l-0.8-0.2l-0.8-0.2l-0.8-0.2l-0.8-0.2l-0.8-0.2l-0.8-0.2l-0.8-0.2
			l-0.8-0.2l-0.8-0.2l-0.8-0.2l-0.8-0.2l-0.8-0.2l-0.8-0.2l-0.8-0.3l-0.8-0.2l-0.8-0.2l-0.8-0.2l-0.8-0.2l-0.8-0.1l-0.8-0.2
			l-0.8-0.2l-0.8-0.2l-0.8-0.2l-0.8-0.2l-0.8-0.2l-0.8-0.1l-0.8-0.2l-0.8-0.2l-0.8-0.1l-0.8-0.2l-0.8-0.2l-0.8-0.1l-0.8-0.2
			l-0.8-0.1l-0.8-0.2l-0.8-0.1l-0.8-0.2l-0.8-0.1l-0.8-0.2l-0.8-0.1l-0.8-0.1l-0.8-0.2l-0.8-0.1l-0.8-0.1l-0.8-0.2l-0.8-0.1
			l-0.8-0.1l-0.8-0.1l-0.8-0.1l-0.8-0.1l-0.8-0.2l-0.8-0.1l-0.8-0.1l-0.8-0.1l-0.8-0.1l-0.8-0.1h-0.8l-0.8-0.1l-0.8-0.1l-0.8-0.1
			l-0.8-0.1l-0.8-0.1h-0.8l-0.8-0.1l-0.8-0.1l-0.8-0.1h-0.8l-0.8-0.1h-0.8l-0.8-0.1l-0.8-0.1h-0.8l-0.8-0.1h-0.8h-0.8l-0.8-0.1h-0.8
			l-0.8-0.1h-0.8h-0.8H42l-0.8-0.1h-0.8h-0.8h-0.8H38h-0.8h-0.8h-0.8h-0.8 M221,429.3l-0.1-0.6v-2.6l-0.1-0.6v-1l-0.1-0.6v-0.5
			l-0.1-0.5v-0.6l-0.1-0.5v-0.5l-0.1-0.6l-0.1-0.5v-0.5l-0.1-0.6l-0.1-0.5l-0.1-0.5l-0.1-0.5l-0.1-0.6l-0.1-0.5l-0.1-0.5l-0.1-0.6
			l-0.1-0.5l-0.1-0.5l-0.1-0.5l-0.2-0.6l-0.1-0.5l-0.1-0.5l-0.2-0.6l-0.1-0.5l-0.2-0.5l-0.1-0.5l-0.2-0.6l-0.1-0.5l-0.2-0.5
			l-0.1-0.5l-0.2-0.6l-0.2-0.5l-0.2-0.5l-0.2-0.5l-0.1-0.5l-0.2-0.6l-0.2-0.5l-0.2-0.5l-0.2-0.5l-0.2-0.5l-0.2-0.6l-0.2-0.5
			l-0.2-0.5l-0.2-0.5l-0.2-0.5l-0.2-0.5l-0.2-0.5L215,399l-0.2-0.5l-0.2-0.5l-0.2-0.5"/>
		<path class="st17" d="M220,417.2l-0.2-0.1 M217.3,405.2l-0.8-0.3 M212.7,393.6l-2.2-1.5"/>
	</g>
	<text transform="matrix(1 0 0 1 210.5 395.5807)" class="st5 st6">3</text>
	<path class="st9" d="M206.3,382.2l-4.4-3.8 M198.2,371.3l-7.9-8.4 M188.4,361.1L177.3,344"/>
	<text transform="matrix(1 0 0 1 177.3438 347.5026)" class="st5 st6">6</text>
	<path class="st9" d="M177.2,351.4l-9.8-29.7 M164.5,342.6l-2.8-43.7 M150.5,334.7l8.2-58.1"/>
	<text transform="matrix(1 0 0 1 158.6719 280.0807)" class="st5 st6">9</text>
	<g>
		<defs>
			<rect id="SVGID_13_" x="34.8" y="260.2" width="186.3" height="169.2"/>
		</defs>
		<clipPath id="SVGID_14_">
			<use xlink:href="#SVGID_13_"  style="overflow:visible;"/>
		</clipPath>
		<polyline class="st18" points="220,417.2 217.3,405.2 212.7,393.6 206.3,382.2 198.2,371.3 188.4,361.1 177.2,351.4 164.5,342.6 
			150.5,334.7 		"/>
	</g>
	<path class="st4" d="M223,417.2c0,1.7-1.3,3-3,3s-3-1.3-3-3s1.3-3,3-3S223,415.5,223,417.2 M220.4,405.2c0,1.7-1.3,3-3,3
		s-3-1.3-3-3s1.3-3,3-3S220.4,403.5,220.4,405.2 M215.7,393.7c0,1.7-1.3,3-3,3s-3-1.3-3-3c0-1.7,1.3-3,3-3S215.7,392,215.7,393.7
		 M209.3,382.2c0,1.7-1.3,3-3,3c-1.7,0-3-1.3-3-3c0-1.7,1.3-3,3-3C208,379.2,209.3,380.5,209.3,382.2 M201.2,371.4c0,1.7-1.3,3-3,3
		c-1.7,0-3-1.3-3-3s1.3-3,3-3C199.8,368.4,201.2,369.7,201.2,371.4 M191.3,361c0,1.7-1.3,3-3,3c-1.7,0-3-1.3-3-3s1.3-3,3-3
		C190,358,191.3,359.4,191.3,361 M180.3,351.4c0,1.7-1.3,3-3,3c-1.7,0-3-1.3-3-3s1.3-3,3-3C178.9,348.4,180.3,349.8,180.3,351.4
		 M167.6,342.6c0,1.7-1.3,3-3,3c-1.7,0-3-1.3-3-3c0-1.7,1.3-3,3-3C166.2,339.6,167.6,340.9,167.6,342.6 M153.4,334.6
		c0,1.7-1.3,3-3,3c-1.7,0-3-1.3-3-3s1.3-3,3-3C152,331.6,153.4,333,153.4,334.6"/>
	<g>
		<defs>
			<rect id="SVGID_15_" x="34.8" y="260.2" width="186.3" height="169.2"/>
		</defs>
		<clipPath id="SVGID_16_">
			<use xlink:href="#SVGID_15_"  style="overflow:visible;"/>
		</clipPath>
		<polyline class="st19" points="219.8,417.2 216.4,404.9 210.5,392.1 201.8,378.4 190.3,362.9 177.3,344 167.4,321.7 161.8,298.9 
			158.7,276.6 		"/>
	</g>
	<path class="st12" d="M217.8,415.1l4.2,4.2 M221.9,415.1l-4.2,4.2 M214.3,402.8l4.2,4.2 M218.5,402.8l-4.2,4.2 M208.4,390l4.2,4.2
		 M212.6,390l-4.2,4.2 M199.8,376.3l4.2,4.2 M203.9,376.3l-4.2,4.2 M188.2,360.8l4.2,4.2 M192.3,360.8l-4.2,4.2 M175.3,341.9
		l4.2,4.2 M179.4,341.9l-4.2,4.2 M165.3,319.7l4.2,4.2 M169.5,319.7l-4.2,4.2 M159.7,296.8l4.2,4.2 M163.8,296.8l-4.2,4.2
		 M156.6,274.5l4.2,4.2 M160.8,274.5l-4.2,4.2"/>
	<g>
		<defs>
			<rect id="SVGID_17_" x="34.8" y="260.2" width="186.3" height="169.2"/>
		</defs>
		<clipPath id="SVGID_18_">
			<use xlink:href="#SVGID_17_"  style="overflow:visible;"/>
		</clipPath>
		<polyline class="st20" points="35.8,422.1 39.3,415 45.2,408.5 53.8,402.8 65.4,399 78.3,398.6 88.3,401.5 93.9,405 97,408 		"/>
	</g>
	<path class="st14" d="M33.8,420l4.2,4.2 M37.9,420l-4.2,4.2 M37.2,412.9l4.2,4.2 M41.3,412.9l-4.2,4.2 M43.1,406.4l4.2,4.2
		 M47.3,406.4l-4.2,4.2 M51.8,400.7l4.2,4.2 M55.9,400.7l-4.2,4.2 M63.3,396.9l4.2,4.2 M67.5,396.9l-4.2,4.2 M76.3,396.5l4.2,4.2
		 M80.4,396.5l-4.2,4.2 M86.2,399.4l4.2,4.2 M90.3,399.4l-4.2,4.2 M91.8,402.9l4.2,4.2 M96,402.9l-4.2,4.2 M94.9,405.9l4.2,4.2
		 M99.1,405.9l-4.2,4.2"/>
	<text transform="matrix(1 0 0 1 83.4219 247.7448)" class="st15 st6">ε</text>
	<text transform="matrix(1 0 0 1 87.7578 247.7448)" class="st5 st6"> = 0.10 ; f</text>
	<text transform="matrix(1 0 0 1 129.1719 252.7448)" class="st5 st21">c</text>
	<text transform="matrix(1 0 0 1 133.1719 247.7448)" class="st5 st6">= 0.5025</text>
	<rect x="34.8" y="483.7" class="st1" width="186.2" height="169.2"/>
	<polyline class="st2" points="34.8,652.8 34.8,483.7 221,483.7 221,652.8 34.8,652.8 	"/>
	<path class="st3" d="M34.8,652.8V483.7 M34.8,483.7L34.8,483.7 M72,652.8V483.7 M72,483.7L72,483.7 M109.3,652.8V483.7
		 M109.3,483.7L109.3,483.7 M146.5,652.8V483.7 M146.5,483.7L146.5,483.7 M183.8,652.8V483.7 M183.8,483.7L183.8,483.7 M221,652.8
		V483.7 M221,483.7L221,483.7 M34.8,652.8H221 M221,652.8L221,652.8 M34.8,628.7H221 M221,628.7L221,628.7 M34.8,604.5H221
		 M221,604.5L221,604.5 M34.8,580.3H221 M221,580.3L221,580.3 M34.8,556.2H221 M221,556.2L221,556.2 M34.8,532H221 M221,532L221,532
		 M34.8,507.8H221 M221,507.8L221,507.8 M34.8,483.7H221 M221,483.7L221,483.7"/>
	<path class="st4" d="M34.8,652.8H221 M34.8,483.7H221 M34.8,652.8V483.7 M221,652.8V483.7 M34.8,652.8H221 M34.8,652.8V483.7
		 M34.8,652.8v-1.9 M34.8,483.7v1.8"/>
	<text transform="matrix(1 0 0 1 32.0078 664.9166)" class="st5 st6">0</text>
	<path class="st4" d="M72,652.8v-1.9 M72,483.7v1.8"/>
	<text transform="matrix(1 0 0 1 65.0859 664.9166)" class="st5 st6">0.</text>
	<text transform="matrix(1 0 0 1 73.4297 664.9166)" class="st5 st6">2</text>
	<path class="st4" d="M109.3,652.8v-1.9 M109.3,483.7v1.8"/>
	<text transform="matrix(1 0 0 1 102.3438 664.9166)" class="st5 st6">0.</text>
	<text transform="matrix(1 0 0 1 110.6797 664.9166)" class="st5 st6">4</text>
	<path class="st4" d="M146.5,652.8v-1.9 M146.5,483.7v1.8"/>
	<text transform="matrix(1 0 0 1 139.5938 664.9166)" class="st5 st6">0.</text>
	<text transform="matrix(1 0 0 1 147.9297 664.9166)" class="st5 st6">6</text>
	<path class="st4" d="M183.8,652.8v-1.9 M183.8,483.7v1.8"/>
	<text transform="matrix(1 0 0 1 176.8359 664.9166)" class="st5 st6">0.</text>
	<text transform="matrix(1 0 0 1 185.1797 664.9166)" class="st5 st6">8</text>
	<path class="st4" d="M221,652.8v-1.9 M221,483.7v1.8"/>
	<text transform="matrix(1 0 0 1 218.2578 664.9166)" class="st5 st6">1</text>
	<path class="st4" d="M34.8,652.8h1.8 M221,652.8h-1.9"/>
	<text transform="matrix(1 0 0 1 26.3359 656.4948)" class="st5 st6">0</text>
	<path class="st4" d="M34.8,628.7h1.8 M221,628.7h-1.9"/>
	<text transform="matrix(1 0 0 1 18 632.3385)" class="st5 st6">0.</text>
	<text transform="matrix(1 0 0 1 26.3516 632.3385)" class="st5 st6">2</text>
	<path class="st4" d="M34.8,604.5h1.8 M221,604.5h-1.9"/>
	<text transform="matrix(1 0 0 1 18 608.1666)" class="st5 st6">0.</text>
	<text transform="matrix(1 0 0 1 26.3516 608.1666)" class="st5 st6">4</text>
	<path class="st4" d="M34.8,580.3h1.8 M221,580.3h-1.9"/>
	<text transform="matrix(1 0 0 1 18 583.9948)" class="st5 st6">0.</text>
	<text transform="matrix(1 0 0 1 26.3516 583.9948)" class="st5 st6">6</text>
	<path class="st4" d="M34.8,556.2h1.8 M221,556.2h-1.9"/>
	<text transform="matrix(1 0 0 1 18 559.8385)" class="st5 st6">0.</text>
	<text transform="matrix(1 0 0 1 26.3516 559.8385)" class="st5 st6">8</text>
	<path class="st4" d="M34.8,532h1.8 M221,532h-1.9"/>
	<text transform="matrix(1 0 0 1 26.3359 535.6666)" class="st5 st6">1</text>
	<path class="st4" d="M34.8,507.8h1.8 M221,507.8h-1.9"/>
	<text transform="matrix(1 0 0 1 18 511.4948)" class="st5 st6">1.</text>
	<text transform="matrix(1 0 0 1 26.3516 511.4948)" class="st5 st6">2</text>
	<path class="st4" d="M34.8,483.7h1.8 M221,483.7h-1.9"/>
	<text transform="matrix(1 0 0 1 18 487.3385)" class="st5 st6">1.</text>
	<text transform="matrix(1 0 0 1 26.3516 487.3385)" class="st5 st6">4</text>
	<path class="st4" d="M34.8,652.8H221 M34.8,483.7H221 M34.8,652.8V483.7 M221,652.8V483.7"/>
	<g>
		<defs>
			<rect id="SVGID_19_" x="34.8" y="483.7" width="186.3" height="169.2"/>
		</defs>
		<clipPath id="SVGID_20_">
			<use xlink:href="#SVGID_19_"  style="overflow:visible;"/>
		</clipPath>
		<path class="st22" d="M34.8,652.8L221,532 M214.4,621l-0.2-0.5L214,620l-0.2-0.5l-0.2-0.5l-0.2-0.5l-0.2-0.5l-0.2-0.5l-0.2-0.5
			l-0.2-0.6l-0.2-0.5l-0.3-0.5l-0.2-0.5l-0.3-0.5l-0.2-0.5l-0.2-0.5l-0.2-0.5l-0.3-0.5L210,612l-0.2-0.5l-0.3-0.5l-0.2-0.5l-0.2-0.5
			l-0.3-0.5l-0.2-0.5l-0.3-0.5l-0.3-0.5l-0.2-0.5l-0.3-0.5l-0.3-0.4l-0.2-0.5l-0.3-0.5l-0.3-0.5l-0.3-0.5l-0.3-0.4l-0.3-0.5
			l-0.3-0.5l-0.3-0.5l-0.3-0.5l-0.3-0.4l-0.3-0.5l-0.3-0.5l-0.3-0.4l-0.4-0.5l-0.3-0.5l-0.3-0.4l-0.4-0.5l-0.3-0.5l-0.4-0.4
			l-0.3-0.5l-0.4-0.5l-0.3-0.4l-0.4-0.5l-0.3-0.4l-0.4-0.5l-0.4-0.4l-0.3-0.5l-0.4-0.5l-0.4-0.4l-0.4-0.4l-0.4-0.5l-0.4-0.4
			l-0.4-0.5l-0.4-0.4l-0.4-0.5l-0.4-0.4l-0.4-0.5l-0.4-0.4l-0.4-0.4l-0.5-0.5l-0.4-0.4l-0.4-0.4l-0.4-0.5l-0.5-0.4l-0.4-0.4
			l-0.5-0.4l-0.4-0.5l-0.5-0.4l-0.4-0.4l-0.5-0.4l-0.4-0.4l-0.5-0.5l-0.5-0.4l-0.4-0.4l-0.5-0.4l-0.5-0.4l-0.5-0.4l-0.5-0.4
			l-0.4-0.4l-0.5-0.4l-0.5-0.4l-0.5-0.4L181,578l-0.5-0.4l-0.5-0.4l-0.6-0.4l-0.5-0.4l-0.5-0.4l-0.5-0.4l-0.5-0.4l-0.6-0.3l-0.5-0.4
			l-0.5-0.4l-0.6-0.4l-0.5-0.4l-0.6-0.3l-0.5-0.4l-0.6-0.4l-0.5-0.3l-0.6-0.4l-0.5-0.4l-0.6-0.3l-0.6-0.4l-0.5-0.4l-0.6-0.3
			l-0.6-0.4l-0.6-0.3l-0.5-0.4l-0.6-0.3l-0.6-0.4l-0.6-0.3l-0.6-0.4l-0.6-0.3l-0.6-0.4l-0.6-0.3l-0.6-0.3l-0.6-0.4l-0.6-0.3
			l-0.6-0.3l-0.7-0.4l-0.6-0.3l-0.6-0.3l-0.6-0.3l-0.7-0.3l-0.6-0.4l-0.6-0.3l-0.7-0.3l-0.6-0.3l-0.6-0.3l-0.7-0.3l-0.6-0.3
			l-0.7-0.3l-0.6-0.3l-0.7-0.3l-0.7-0.3l-0.6-0.3l-0.7-0.3l-0.6-0.3l-0.7-0.3l-0.7-0.3l-0.7-0.3l-0.6-0.3l-0.7-0.2l-0.7-0.3
			l-0.7-0.3l-0.7-0.3l-0.7-0.2l-0.7-0.3l-0.7-0.3l-0.7-0.2l-0.7-0.3l-0.7-0.3l-0.7-0.3l-0.7-0.3l-0.7-0.2l-0.7-0.3l-0.7-0.2
			l-0.7-0.3l-0.7-0.3l-0.8-0.2l-0.7-0.3l-0.7-0.2l-0.7-0.3l-0.8-0.2l-0.7-0.2l-0.7-0.3l-0.8-0.3l-0.7-0.2l-0.8-0.2l-0.7-0.2
			l-0.7-0.2l-0.8-0.3l-0.7-0.2l-0.8-0.2l-0.7-0.2l-0.8-0.2l-0.8-0.2l-0.7-0.2l-0.8-0.2l-0.7-0.2l-0.8-0.2l-0.8-0.2l-0.8-0.3
			l-0.7-0.2l-0.7-0.2l-0.8-0.2l-0.8-0.2l-0.7-0.2l-0.8-0.2l-0.8-0.2l-0.8-0.2l-0.8-0.3l-0.8-0.2l-0.7-0.2l-0.8-0.2L109,542l-0.8-0.2
			l-0.8-0.2l-0.8-0.2l-0.8-0.2l-0.8-0.3l-0.8-0.2l-0.8-0.2l-0.8-0.2l-0.8-0.2l-0.8-0.2l-0.8-0.2l-0.8-0.2l-0.8-0.2l-0.8-0.2
			l-0.8-0.2l-0.8-0.2l-0.8-0.2l-0.8-0.2l-0.8-0.2l-0.8-0.2L93,538l-0.8-0.2l-0.8-0.1l-0.8-0.2l-0.8-0.2l-0.8-0.2l-0.8-0.2l-0.8-0.2
			l-0.8-0.2l-0.8-0.1l-0.8-0.2l-0.8-0.2l-0.8-0.1l-0.8-0.2l-0.8-0.2l-0.8-0.1l-0.8-0.2l-0.8-0.1l-0.8-0.2l-0.8-0.1l-0.8-0.2
			l-0.8-0.1l-0.8-0.2l-0.8-0.1l-0.8-0.1l-0.8-0.2l-0.8-0.1l-0.8-0.1l-0.8-0.2l-0.8-0.1l-0.8-0.1l-0.8-0.1l-0.8-0.1l-0.8-0.1
			l-0.8-0.2l-0.8-0.1l-0.8-0.1l-0.8-0.1l-0.8-0.1l-0.8-0.1h-0.8l-0.8-0.1l-0.8-0.1L59,533l-0.8-0.1l-0.8-0.1h-0.8l-0.8-0.1l-0.8-0.1
			l-0.8-0.1h-0.8l-0.8-0.1h-0.8l-0.8-0.1l-0.8-0.1h-0.8l-0.8-0.1h-0.8h-0.8l-0.8-0.1h-0.8l-0.8-0.1h-0.8h-0.8H42l-0.8-0.1h-0.8h-0.8
			h-0.8H38h-0.8h-0.8h-0.8h-0.8 M221,652.8l-0.1-0.6v-2.6l-0.1-0.6v-1l-0.1-0.6V647l-0.1-0.5v-0.6l-0.1-0.5v-0.5l-0.1-0.6l-0.1-0.5
			v-0.5l-0.1-0.6l-0.1-0.5l-0.1-0.5l-0.1-0.5l-0.1-0.6l-0.1-0.5l-0.1-0.5l-0.1-0.6l-0.1-0.5l-0.1-0.5l-0.1-0.5l-0.2-0.6l-0.1-0.5
			l-0.1-0.5l-0.2-0.6l-0.1-0.5l-0.2-0.5l-0.1-0.5l-0.2-0.6l-0.1-0.5l-0.2-0.5l-0.1-0.5l-0.2-0.6l-0.2-0.5l-0.2-0.5l-0.2-0.5
			l-0.1-0.5l-0.2-0.6l-0.2-0.5l-0.2-0.5l-0.2-0.5l-0.2-0.5l-0.2-0.6l-0.2-0.5l-0.2-0.5l-0.2-0.5l-0.2-0.5l-0.2-0.5l-0.2-0.5
			l-0.2-0.6l-0.2-0.5l-0.2-0.5l-0.2-0.5"/>
		<path class="st23" d="M220,640.8l-0.4-0.1 M217.3,628.8l-2-0.3 M212.7,617.1l-5.2-1.3"/>
	</g>
	<text transform="matrix(1 0 0 1 207.5078 619.2526)" class="st5 st6">3</text>
	<path class="st9" d="M206.3,605.7l-10.7-3.6 M198.2,594.8l-20.3-9 M188.4,584.6l-30.1-22.9"/>
	<text transform="matrix(1 0 0 1 158.3438 565.1666)" class="st5 st6">6</text>
	<g>
		<defs>
			<rect id="SVGID_21_" x="34.8" y="483.7" width="186.3" height="169.2"/>
		</defs>
		<clipPath id="SVGID_22_">
			<use xlink:href="#SVGID_21_"  style="overflow:visible;"/>
		</clipPath>
		<path class="st24" d="M177.2,574.9l-27.5-41.2 M164.5,566.1l-18.1-58.2 M150.5,558.2l-5.6-74.5"/>
	</g>
	<text transform="matrix(1 0 0 1 144.8438 486.8307)" class="st5 st6">9</text>
	<g>
		<defs>
			<rect id="SVGID_23_" x="34.8" y="483.7" width="186.3" height="169.2"/>
		</defs>
		<clipPath id="SVGID_24_">
			<use xlink:href="#SVGID_23_"  style="overflow:visible;"/>
		</clipPath>
		<polyline class="st25" points="220,640.8 217.3,628.8 212.7,617.1 206.3,605.8 198.2,594.8 188.4,584.6 177.2,574.9 164.5,566.1 
			150.5,558.2 		"/>
	</g>
	<path class="st4" d="M223,640.6c0,1.7-1.3,3-3,3s-3-1.3-3-3s1.3-3,3-3S223,639,223,640.6 M220.4,628.6c0,1.7-1.3,3-3,3s-3-1.3-3-3
		s1.3-3,3-3S220.4,627,220.4,628.6 M215.7,617.1c0,1.7-1.3,3-3,3s-3-1.3-3-3s1.3-3,3-3S215.7,615.5,215.7,617.1 M209.3,605.8
		c0,1.7-1.3,3-3,3c-1.7,0-3-1.3-3-3s1.3-3,3-3C208,602.8,209.3,604.2,209.3,605.8 M201.2,594.8c0,1.7-1.3,3-3,3c-1.7,0-3-1.3-3-3
		s1.3-3,3-3C199.8,591.8,201.2,593.1,201.2,594.8 M191.3,584.5c0,1.7-1.3,3-3,3c-1.7,0-3-1.3-3-3s1.3-3,3-3
		C190,581.5,191.3,582.8,191.3,584.5 M180.3,574.9c0,1.7-1.3,3-3,3c-1.7,0-3-1.3-3-3s1.3-3,3-3C178.9,571.9,180.3,573.2,180.3,574.9
		 M167.6,566c0,1.7-1.3,3-3,3c-1.7,0-3-1.3-3-3s1.3-3,3-3C166.2,563,167.6,564.3,167.6,566 M153.4,558.1c0,1.7-1.3,3-3,3
		c-1.7,0-3-1.3-3-3s1.3-3,3-3C152,555.1,153.4,556.4,153.4,558.1"/>
	<g>
		<defs>
			<rect id="SVGID_25_" x="34.8" y="483.7" width="186.3" height="169.2"/>
		</defs>
		<clipPath id="SVGID_26_">
			<use xlink:href="#SVGID_25_"  style="overflow:visible;"/>
		</clipPath>
		<polyline class="st26" points="219.6,640.7 215.3,628.4 207.5,615.8 195.6,602.2 177.8,585.8 158.3,561.7 149.7,533.8 
			146.4,507.8 144.9,483.7 		"/>
	</g>
	<path class="st12" d="M217.5,638.6l4.2,4.2 M221.7,638.6l-4.2,4.2 M213.2,626.3l4.2,4.2 M217.3,626.3l-4.2,4.2 M205.4,613.7
		l4.2,4.2 M209.6,613.7l-4.2,4.2 M193.5,600.1l4.2,4.2 M197.7,600.1l-4.2,4.2 M175.8,583.8l4.2,4.2 M179.9,583.8l-4.2,4.2
		 M156.3,559.6l4.2,4.2 M160.4,559.6l-4.2,4.2 M147.6,531.7l4.2,4.2 M151.8,531.7l-4.2,4.2 M144.3,505.8l4.2,4.2 M148.5,505.8
		l-4.2,4.2"/>
	<g>
		<defs>
			<rect id="SVGID_27_" x="34.8" y="483.7" width="186.3" height="169.2"/>
		</defs>
		<clipPath id="SVGID_28_">
			<use xlink:href="#SVGID_27_"  style="overflow:visible;"/>
		</clipPath>
		<polyline class="st27" points="36.1,643.8 40.4,634.8 48.2,626.3 60.1,618.8 77.8,614 97.3,617 106,623.8 109.3,628.7 110.8,632 
					"/>
	</g>
	<path class="st14" d="M34,641.7l4.2,4.2 M38.2,641.7l-4.2,4.2 M38.3,632.7l4.2,4.2 M42.5,632.7l-4.2,4.2 M46.1,624.2l4.2,4.2
		 M50.3,624.2l-4.2,4.2 M58,616.8l4.2,4.2 M62.2,616.8l-4.2,4.2 M75.8,611.9l4.2,4.2 M79.9,611.9l-4.2,4.2 M95.3,614.9l4.2,4.2
		 M99.4,614.9l-4.2,4.2 M103.9,621.8l4.2,4.2 M108.1,621.8l-4.2,4.2 M107.2,626.6l4.2,4.2 M111.3,626.6l-4.2,4.2 M108.8,629.9
		l4.2,4.2 M112.9,629.9l-4.2,4.2"/>
	<text transform="matrix(1 0 0 1 83.4219 471.2526)" class="st15 st6">ε</text>
	<text transform="matrix(1 0 0 1 87.7578 471.2526)" class="st5 st6"> = 0.25 ; f</text>
	<text transform="matrix(1 0 0 1 129.1719 476.2526)" class="st5 st21">c</text>
	<text transform="matrix(1 0 0 1 133.1719 471.2526)" class="st5 st6">= 0.5963</text>
	<rect x="289.8" y="36.5" class="st1" width="186.3" height="169.3"/>
	<polyline class="st2" points="289.8,205.8 289.8,36.5 476.2,36.5 476.2,205.8 289.8,205.8 	"/>
	<path class="st3" d="M289.8,205.8V36.6 M289.8,36.6L289.8,36.6 M366.8,205.8V36.6 M366.8,36.6L366.8,36.6 M443.8,205.8V36.6
		 M443.8,36.6L443.8,36.6 M289.8,205.8h186.3 M476.2,205.8L476.2,205.8 M289.8,171.9h186.3 M476.2,171.9L476.2,171.9 M289.8,138.1
		h186.3 M476.2,138.1L476.2,138.1 M289.8,104.2h186.3 M476.2,104.2L476.2,104.2 M289.8,70.4h186.3 M476.2,70.4L476.2,70.4
		 M289.8,36.6h186.3 M476.2,36.6L476.2,36.6"/>
	<path class="st4" d="M289.8,205.8h186.3 M289.8,36.5h186.3 M289.8,205.8V36.5 M476.2,205.8V36.5 M289.8,205.8h186.3 M289.8,205.8
		V36.5 M289.8,205.8v-1.9 M289.8,36.6v1.8"/>
	<text transform="matrix(1 0 0 1 287.0938 217.9166)" class="st5 st6">0</text>
	<path class="st4" d="M366.8,205.8v-1.9 M366.8,36.6v1.8"/>
	<text transform="matrix(1 0 0 1 359.8438 217.9166)" class="st5 st6">0.</text>
	<text transform="matrix(1 0 0 1 368.1797 217.9166)" class="st5 st6">5</text>
	<path class="st4" d="M443.8,205.8v-1.9 M443.8,36.6v1.8"/>
	<text transform="matrix(1 0 0 1 441.0078 217.9166)" class="st5 st6">1</text>
	<path class="st4" d="M289.8,205.8h1.8 M476.2,205.8h-1.9"/>
	<text transform="matrix(1 0 0 1 267.2578 209.5026)" class="st5 st6">−1.</text>
	<text transform="matrix(1 0 0 1 281.4375 209.5026)" class="st5 st6">5</text>
	<path class="st4" d="M289.8,171.9h1.8 M476.2,171.9h-1.9"/>
	<text transform="matrix(1 0 0 1 275.5859 175.5807)" class="st5 st6">−1</text>
	<path class="st4" d="M289.8,138.1h1.8 M476.2,138.1h-1.9"/>
	<text transform="matrix(1 0 0 1 267.2578 141.7526)" class="st5 st6">−0.</text>
	<text transform="matrix(1 0 0 1 281.4375 141.7526)" class="st5 st6">5</text>
	<path class="st4" d="M289.8,104.2h1.8 M476.2,104.2h-1.9"/>
	<text transform="matrix(1 0 0 1 281.4219 107.9166)" class="st5 st6">0</text>
	<path class="st4" d="M289.8,70.4h1.8 M476.2,70.4h-1.9"/>
	<text transform="matrix(1 0 0 1 273.0859 74.0885)" class="st5 st6">0.</text>
	<text transform="matrix(1 0 0 1 281.4297 74.0885)" class="st5 st6">5</text>
	<path class="st4" d="M289.8,36.6h1.8 M476.2,36.6h-1.9"/>
	<text transform="matrix(1 0 0 1 281.4219 40.2448)" class="st5 st6">1</text>
	<path class="st4" d="M289.8,205.8h186.3 M289.8,36.5h186.3 M289.8,205.8V36.5 M476.2,205.8V36.5 M305.2,43l15.4,5.8l15.4,5.2
		l15.4,4.8l15.3,4.3l15.4,3.9l15.4,3.5l15.4,3.2l15.4,2.9l15.3,2.6l15.4,2.3 M308.2,43c0,1.7-1.3,3-3,3c-1.7,0-3-1.3-3-3s1.3-3,3-3
		C306.8,40,308.2,41.4,308.2,43 M323.6,48.8c0,1.7-1.3,3-3,3s-3-1.3-3-3s1.3-3,3-3S323.6,47.1,323.6,48.8 M338.9,54.1
		c0,1.7-1.3,3-3,3c-1.7,0-3-1.3-3-3s1.3-3,3-3C337.6,51.1,338.9,52.4,338.9,54.1 M354.5,58.9c0,1.7-1.3,3-3,3c-1.7,0-3-1.3-3-3
		s1.3-3,3-3C353.2,55.9,354.5,57.2,354.5,58.9 M369.9,63.2c0,1.7-1.3,3-3,3s-3-1.3-3-3s1.3-3,3-3S369.9,61.5,369.9,63.2 M385.2,67
		c0,1.7-1.3,3-3,3s-3-1.3-3-3s1.3-3,3-3S385.2,65.4,385.2,67 M400.6,70.6c0,1.7-1.3,3-3,3s-3-1.3-3-3s1.3-3,3-3S400.6,69,400.6,70.6
		 M416,73.8c0,1.7-1.3,3-3,3s-3-1.3-3-3s1.3-3,3-3S416,72.1,416,73.8 M431.3,76.6c0,1.7-1.3,3-3,3s-3-1.3-3-3s1.3-3,3-3
		S431.3,75,431.3,76.6 M446.7,79.3c0,1.7-1.3,3-3,3s-3-1.3-3-3s1.3-3,3-3S446.7,77.6,446.7,79.3 M462.3,81.7c0,1.7-1.3,3-3,3
		s-3-1.3-3-3s1.3-3,3-3S462.3,80,462.3,81.7"/>
	<path class="st14" d="M305.2,108l15.4,4.5l15.4,5.2l15.4,6.1l15.3,6.8l15.4,7.4l15.4,7.9l15.4,8.3l15.4,8.7l15.3,8.9l15.4,9.2
		 M302.2,108h6 M305.2,105v6 M317.6,112.5h6 M320.6,109.5v6 M333,117.8h6 M336,114.8v6 M348.4,123.8h6 M351.4,120.8v6 M363.8,130.7
		h6 M366.8,127.7v6 M379.2,138.1h6 M382.2,135.1v6 M394.6,146h6 M397.6,143v6 M410,154.3h6 M413,151.3v6 M425.4,163h6 M428.4,160v6
		 M440.8,171.9h6 M443.8,168.9v6 M456.2,181.1h6 M459.2,178.1v6"/>
	<path class="st12" d="M305.2,42.9l15.4,5.7l15.4,4.9l15.4,4l15.3,3.4l15.4,2.7l15.4,2.2l15.4,1.8l15.4,1.5l15.3,1.2l15.4,1
		 M303.1,40.8l4.2,4.2 M307.3,40.8l-4.2,4.2 M318.5,46.5l4.2,4.2 M322.7,46.5l-4.2,4.2 M333.9,51.4l4.2,4.2 M338.1,51.4l-4.2,4.2
		 M349.3,55.4l4.2,4.2 M353.5,55.4l-4.2,4.2 M364.7,58.8l4.2,4.2 M368.8,58.8l-4.2,4.2 M380.1,61.5l4.2,4.2 M384.3,61.5l-4.2,4.2
		 M395.5,63.8l4.2,4.2 M399.7,63.8l-4.2,4.2 M410.9,65.6l4.2,4.2 M415.1,65.6l-4.2,4.2 M426.3,67.1l4.2,4.2 M430.5,67.1l-4.2,4.2
		 M441.7,68.3l4.2,4.2 M445.8,68.3l-4.2,4.2 M457.1,69.3l4.2,4.2 M461.3,69.3l-4.2,4.2"/>
	<text transform="matrix(1 0 0 1 337.0078 24.1666)" class="st15 st6">ε</text>
	<text transform="matrix(1 0 0 1 341.3359 24.1666)" class="st5 st6"> = 0.00 ; </text>
	<text transform="matrix(1 0 0 1 380.0078 24.1666)" class="st15 st6">μ</text>
	<text transform="matrix(1 0 0 1 385.7578 29.1666)" class="st5 st21">c</text>
	<text transform="matrix(1 0 0 1 389.7578 24.1666)" class="st5 st6">= 1.0000</text>
	<rect x="289.8" y="260.2" class="st1" width="186.3" height="169.2"/>
	<polyline class="st2" points="289.8,429.3 289.8,260.2 476.2,260.2 476.2,429.3 289.8,429.3 	"/>
	<path class="st3" d="M289.8,429.3V260.2 M289.8,260.2L289.8,260.2 M366.8,429.3V260.2 M366.8,260.2L366.8,260.2 M443.8,429.3V260.2
		 M443.8,260.2L443.8,260.2 M289.8,429.3h186.3 M476.2,429.3L476.2,429.3 M289.8,395.5h186.3 M476.2,395.5L476.2,395.5 M289.8,361.7
		h186.3 M476.2,361.7L476.2,361.7 M289.8,327.8h186.3 M476.2,327.8L476.2,327.8 M289.8,294h186.3 M476.2,294L476.2,294 M289.8,260.2
		h186.3 M476.2,260.2L476.2,260.2"/>
	<path class="st4" d="M289.8,429.3h186.3 M289.8,260.2h186.3 M289.8,429.3V260.2 M476.2,429.3V260.2 M289.8,429.3h186.3
		 M289.8,429.3V260.2 M289.8,429.3v-1.9 M289.8,260.2v1.8"/>
	<text transform="matrix(1 0 0 1 287.0938 441.4166)" class="st5 st6">0</text>
	<path class="st4" d="M366.8,429.3v-1.9 M366.8,260.2v1.8"/>
	<text transform="matrix(1 0 0 1 359.8438 441.4166)" class="st5 st6">0.</text>
	<text transform="matrix(1 0 0 1 368.1797 441.4166)" class="st5 st6">5</text>
	<path class="st4" d="M443.8,429.3v-1.9 M443.8,260.2v1.8"/>
	<text transform="matrix(1 0 0 1 441.0078 441.4166)" class="st5 st6">1</text>
	<path class="st4" d="M289.8,429.3h1.8 M476.2,429.3h-1.9"/>
	<text transform="matrix(1 0 0 1 267.2578 433.0026)" class="st5 st6">−1.</text>
	<text transform="matrix(1 0 0 1 281.4375 433.0026)" class="st5 st6">5</text>
	<path class="st4" d="M289.8,395.5h1.8 M476.2,395.5h-1.9"/>
	<text transform="matrix(1 0 0 1 275.5859 399.1666)" class="st5 st6">−1</text>
	<path class="st4" d="M289.8,361.7h1.8 M476.2,361.7h-1.9"/>
	<text transform="matrix(1 0 0 1 267.2578 365.3385)" class="st5 st6">−0.</text>
	<text transform="matrix(1 0 0 1 281.4375 365.3385)" class="st5 st6">5</text>
	<path class="st4" d="M289.8,327.8h1.8 M476.2,327.8h-1.9"/>
	<text transform="matrix(1 0 0 1 281.4219 331.4948)" class="st5 st6">0</text>
	<path class="st4" d="M289.8,294h1.8 M476.2,294h-1.9"/>
	<text transform="matrix(1 0 0 1 273.0859 297.6666)" class="st5 st6">0.</text>
	<text transform="matrix(1 0 0 1 281.4297 297.6666)" class="st5 st6">5</text>
	<path class="st4" d="M289.8,260.2h1.8 M476.2,260.2h-1.9"/>
	<text transform="matrix(1 0 0 1 281.4219 263.8307)" class="st5 st6">1</text>
	<path class="st4" d="M289.8,429.3h186.3 M289.8,260.2h186.3 M289.8,429.3V260.2 M476.2,429.3V260.2 M305.2,266.6l15.4,5.8l15.4,5.2
		l15.4,4.8l15.3,4.3l15.4,3.9l15.4,3.5l15.4,3.2l15.4,2.8l15.3,2.7l15.4,2.3 M308.2,266.5c0,1.7-1.3,3-3,3c-1.7,0-3-1.3-3-3
		s1.3-3,3-3C306.8,263.5,308.2,264.8,308.2,266.5 M323.6,272.5c0,1.7-1.3,3-3,3s-3-1.3-3-3s1.3-3,3-3S323.6,270.8,323.6,272.5
		 M338.9,277.8c0,1.7-1.3,3-3,3c-1.7,0-3-1.3-3-3s1.3-3,3-3C337.6,274.8,338.9,276.1,338.9,277.8 M354.5,282.3c0,1.7-1.3,3-3,3
		c-1.7,0-3-1.3-3-3s1.3-3,3-3C353.2,279.3,354.5,280.7,354.5,282.3 M369.9,286.6c0,1.7-1.3,3-3,3s-3-1.3-3-3s1.3-3,3-3
		S369.9,285,369.9,286.6 M385.2,290.7c0,1.7-1.3,3-3,3s-3-1.3-3-3c0-1.7,1.3-3,3-3S385.2,289.1,385.2,290.7 M400.6,294.1
		c0,1.7-1.3,3-3,3s-3-1.3-3-3s1.3-3,3-3S400.6,292.4,400.6,294.1 M416,297.4c0,1.7-1.3,3-3,3s-3-1.3-3-3s1.3-3,3-3
		S416,295.8,416,297.4 M431.3,300.3c0,1.7-1.3,3-3,3s-3-1.3-3-3s1.3-3,3-3S431.3,298.7,431.3,300.3 M446.7,303c0,1.7-1.3,3-3,3
		s-3-1.3-3-3c0-1.7,1.3-3,3-3S446.7,301.3,446.7,303 M462.3,305.4c0,1.7-1.3,3-3,3s-3-1.3-3-3s1.3-3,3-3S462.3,303.7,462.3,305.4"/>
	<path class="st14" d="M305.2,332.2l15.4,5.4l15.4,6.2l15.4,7.1l15.3,7.8l15.4,8.4l15.4,8.8l15.4,9.2l15.4,9.5l15.3,9.8l15.4,9.8
		 M302.2,332.2h6 M305.2,329.2v6 M317.6,337.7h6 M320.6,334.7v6 M333,343.8h6 M336,340.8v6 M348.4,350.9h6 M351.4,347.9v6
		 M363.8,358.7h6 M366.8,355.7v6 M379.2,367.1h6 M382.2,364.1v6 M394.6,375.9h6 M397.6,372.9v6 M410,385.1h6 M413,382.1v6
		 M425.4,394.6h6 M428.4,391.6v6 M440.8,404.3h6 M443.8,401.3v6 M456.2,414.2h6 M459.2,411.2v6"/>
	<path class="st12" d="M305.2,266.5l15.4,5.4l15.4,4.6l15.4,3.8l15.3,3l15.4,2.5l15.4,2l15.4,1.6l15.4,1.3l15.3,1.2l15.4,0.9
		 M303.1,264.4l4.2,4.2 M307.3,264.4l-4.2,4.2 M318.5,269.8l4.2,4.2 M322.7,269.8l-4.2,4.2 M333.9,274.4l4.2,4.2 M338.1,274.4
		l-4.2,4.2 M349.3,278.2l4.2,4.2 M353.5,278.2l-4.2,4.2 M364.7,281.2l4.2,4.2 M368.8,281.2l-4.2,4.2 M380.1,283.7l4.2,4.2
		 M384.3,283.7l-4.2,4.2 M395.5,285.8l4.2,4.2 M399.7,285.8l-4.2,4.2 M410.9,287.3l4.2,4.2 M415.1,287.3l-4.2,4.2 M426.3,288.7
		l4.2,4.2 M430.5,288.7l-4.2,4.2 M441.7,289.8l4.2,4.2 M445.8,289.8l-4.2,4.2 M457.1,290.7l4.2,4.2 M461.3,290.7l-4.2,4.2"/>
	<text transform="matrix(1 0 0 1 337.0078 247.7448)" class="st15 st6">ε</text>
	<text transform="matrix(1 0 0 1 341.3359 247.7448)" class="st5 st6"> = 0.10 ; </text>
	<text transform="matrix(1 0 0 1 380.0078 247.7448)" class="st15 st6">μ</text>
	<text transform="matrix(1 0 0 1 385.7578 252.7448)" class="st5 st21">c</text>
	<text transform="matrix(1 0 0 1 389.7578 247.7448)" class="st5 st6">= 0.9091</text>
	<rect x="289.8" y="483.7" class="st1" width="186.3" height="169.2"/>
	<polyline class="st2" points="289.8,652.8 289.8,483.7 476.2,483.7 476.2,652.8 289.8,652.8 	"/>
	<path class="st3" d="M289.8,652.8V483.7 M289.8,483.7L289.8,483.7 M366.8,652.8V483.7 M366.8,483.7L366.8,483.7 M443.8,652.8V483.7
		 M443.8,483.7L443.8,483.7 M289.8,652.8h186.3 M476.2,652.8L476.2,652.8 M289.8,619h186.3 M476.2,619L476.2,619 M289.8,585.2h186.3
		 M476.2,585.2L476.2,585.2 M289.8,551.3h186.3 M476.2,551.3L476.2,551.3 M289.8,517.5h186.3 M476.2,517.5L476.2,517.5 M289.8,483.7
		h186.3 M476.2,483.7L476.2,483.7"/>
	<path class="st4" d="M289.8,652.8h186.3 M289.8,483.7h186.3 M289.8,652.8V483.7 M476.2,652.8V483.7 M289.8,652.8h186.3
		 M289.8,652.8V483.7 M289.8,652.8v-1.9 M289.8,483.7v1.8"/>
	<text transform="matrix(1 0 0 1 287.0938 664.9166)" class="st5 st6">0</text>
	<path class="st4" d="M366.8,652.8v-1.9 M366.8,483.7v1.8"/>
	<text transform="matrix(1 0 0 1 359.8438 664.9166)" class="st5 st6">0.</text>
	<text transform="matrix(1 0 0 1 368.1797 664.9166)" class="st5 st6">5</text>
	<path class="st4" d="M443.8,652.8v-1.9 M443.8,483.7v1.8"/>
	<text transform="matrix(1 0 0 1 441.0078 664.9166)" class="st5 st6">1</text>
	<path class="st4" d="M289.8,652.8h1.8 M476.2,652.8h-1.9"/>
	<text transform="matrix(1 0 0 1 267.2578 656.4948)" class="st5 st6">−1.</text>
	<text transform="matrix(1 0 0 1 281.4375 656.4948)" class="st5 st6">5</text>
	<path class="st4" d="M289.8,619h1.8 M476.2,619h-1.9"/>
	<text transform="matrix(1 0 0 1 275.5859 622.6666)" class="st5 st6">−1</text>
	<path class="st4" d="M289.8,585.2h1.8 M476.2,585.2h-1.9"/>
	<text transform="matrix(1 0 0 1 267.2578 588.8307)" class="st5 st6">−0.</text>
	<text transform="matrix(1 0 0 1 281.4375 588.8307)" class="st5 st6">5</text>
	<path class="st4" d="M289.8,551.3h1.8 M476.2,551.3h-1.9"/>
	<text transform="matrix(1 0 0 1 281.4219 555.0026)" class="st5 st6">0</text>
	<path class="st4" d="M289.8,517.5h1.8 M476.2,517.5h-1.9"/>
	<text transform="matrix(1 0 0 1 273.0859 521.1666)" class="st5 st6">0.</text>
	<text transform="matrix(1 0 0 1 281.4297 521.1666)" class="st5 st6">5</text>
	<path class="st4" d="M289.8,483.7h1.8 M476.2,483.7h-1.9"/>
	<text transform="matrix(1 0 0 1 281.4219 487.3385)" class="st5 st6">1</text>
	<path class="st4" d="M289.8,652.8h186.3 M289.8,483.7h186.3 M289.8,652.8V483.7 M476.2,652.8V483.7 M305.2,490.1l15.4,5.8l15.4,5.2
		l15.4,4.8l15.3,4.3l15.4,3.9l15.4,3.5l15.4,3.2l15.4,2.8l15.3,2.7l15.4,2.3 M308.2,490.2c0,1.7-1.3,3-3,3c-1.7,0-3-1.3-3-3
		s1.3-3,3-3C306.8,487.2,308.2,488.5,308.2,490.2 M323.6,495.9c0,1.7-1.3,3-3,3s-3-1.3-3-3s1.3-3,3-3S323.6,494.3,323.6,495.9
		 M338.9,501.2c0,1.7-1.3,3-3,3c-1.7,0-3-1.3-3-3s1.3-3,3-3C337.6,498.2,338.9,499.5,338.9,501.2 M354.5,506c0,1.7-1.3,3-3,3
		c-1.7,0-3-1.3-3-3s1.3-3,3-3C353.2,503,354.5,504.3,354.5,506 M369.9,510.3c0,1.7-1.3,3-3,3s-3-1.3-3-3s1.3-3,3-3
		S369.9,508.7,369.9,510.3 M385.2,514.2c0,1.7-1.3,3-3,3s-3-1.3-3-3s1.3-3,3-3S385.2,512.5,385.2,514.2 M400.6,517.8
		c0,1.7-1.3,3-3,3s-3-1.3-3-3s1.3-3,3-3S400.6,516.1,400.6,517.8 M416,520.9c0,1.7-1.3,3-3,3s-3-1.3-3-3s1.3-3,3-3
		S416,519.2,416,520.9 M431.3,523.8c0,1.7-1.3,3-3,3s-3-1.3-3-3s1.3-3,3-3S431.3,522.1,431.3,523.8 M446.7,526.4c0,1.7-1.3,3-3,3
		s-3-1.3-3-3s1.3-3,3-3S446.7,524.7,446.7,526.4 M462.3,528.8c0,1.7-1.3,3-3,3s-3-1.3-3-3s1.3-3,3-3S462.3,527.1,462.3,528.8"/>
	<g>
		<defs>
			<rect id="SVGID_29_" x="289.8" y="483.7" width="186.4" height="169.2"/>
		</defs>
		<clipPath id="SVGID_30_">
			<use xlink:href="#SVGID_29_"  style="overflow:visible;"/>
		</clipPath>
		<polyline class="st28" points="305.2,556.9 320.6,563.5 336,571.1 351.4,579.6 366.8,588.8 382.2,598.4 397.6,608.5 413,619 
			428.4,629.7 443.8,640.5 459.2,651.6 		"/>
	</g>
	<path class="st14" d="M302.2,556.9h6 M305.2,553.9v6 M317.6,563.5h6 M320.6,560.5v6 M333,571.1h6 M336,568.1v6 M348.4,579.6h6
		 M351.4,576.6v6 M363.8,588.8h6 M366.8,585.8v6 M379.2,598.4h6 M382.2,595.4v6 M394.6,608.5h6 M397.6,605.5v6 M410,619h6 M413,616
		v6 M425.4,629.7h6 M428.4,626.7v6 M440.8,640.5h6 M443.8,637.5v6 M456.2,651.6h6 M459.2,648.6v6"/>
	<path class="st12" d="M305.2,489.9l15.4,5.2l15.4,4.2l15.4,3.4l15.3,2.7l15.4,2.2l15.4,1.7l15.4,1.4l15.4,1.2l15.3,1l15.4,0.8
		 M303.1,487.8l4.2,4.2 M307.3,487.8l-4.2,4.2 M318.5,493l4.2,4.2 M322.7,493l-4.2,4.2 M333.9,497.2l4.2,4.2 M338.1,497.2l-4.2,4.2
		 M349.3,500.7l4.2,4.2 M353.5,500.7l-4.2,4.2 M364.7,503.3l4.2,4.2 M368.8,503.3l-4.2,4.2 M380.1,505.5l4.2,4.2 M384.3,505.5
		l-4.2,4.2 M395.5,507.2l4.2,4.2 M399.7,507.2l-4.2,4.2 M410.9,508.6l4.2,4.2 M415.1,508.6l-4.2,4.2 M426.3,509.8l4.2,4.2
		 M430.5,509.8l-4.2,4.2 M441.7,510.7l4.2,4.2 M445.8,510.7l-4.2,4.2 M457.1,511.5l4.2,4.2 M461.3,511.5l-4.2,4.2"/>
	<text transform="matrix(1 0 0 1 337.0078 471.2526)" class="st15 st6">ε</text>
	<text transform="matrix(1 0 0 1 341.3359 471.2526)" class="st5 st6"> = 0.25 ; </text>
	<text transform="matrix(1 0 0 1 380.0078 471.2526)" class="st15 st6">μ</text>
	<text transform="matrix(1 0 0 1 385.7578 476.2526)" class="st5 st21">c</text>
	<text transform="matrix(1 0 0 1 389.7578 471.2526)" class="st5 st6">= 0.8000</text>
</g>
</svg>
